# xmcd CD database file
#
# Track frame offsets:
#	150
#	11195
#	26866
#	47317
#	75156
#	112108
#	128911
#	148734
#	179282
#	207407
#	227164
#	250019
#	272349
#	292090
#
# Disc length: 4218 seconds
#
# Revision: 1
# Processed by: cddbd v1.4PL0 Copyright (c) Steve Scherf et al.
# Submitted via: CDex 1.50
#
DISCID=c410780e
DTITLE=Fear Factory - Immortal Combat
DYEAR=2002
DGENRE=Metal
TTITLE0=Intro
TTITLE1=What Will become
TTITLE2=No One
TTITLE3=Self Bias Resistor
TTITLE4=Digimortal
TTITLE5=Edgecrusher
TTITLE6=Linchpin
TTITLE7=Descent
TTITLE8=Resurrection
TTITLE9=Acres Of Skin
TTITLE10=Martyr
TTITLE11=Smasher - Devourer
TTITLE12=Back The Fuck Up
TTITLE13=Interview
EXTD=YEAR: 2002
EXTT0=
EXTT1=
EXTT2=
EXTT3=
EXTT4=
EXTT5=
EXTT6=
EXTT7=
EXTT8=
EXTT9=
EXTT10=
EXTT11=
EXTT12=
EXTT13=
PLAYORDER=
